<?xml version="1.0" encoding="iso-8859-1"?>
<!-- Generator: Adobe Illustrator 19.0.0, SVG Export Plug-In . SVG Version: 6.00 Build 0)  -->
<svg version="1.1" id="Capa_1" xmlns="http://www.w3.org/2000/svg" xmlns:xlink="http://www.w3.org/1999/xlink" x="0px" y="0px"
	 viewBox="0 0 511.999 511.999" style="enable-background:new 0 0 511.999 511.999;" xml:space="preserve">
<path style="fill:#FFD883;" d="M214.584,73.767h-41.42c-27.447,0-49.697,22.25-49.697,49.697l0.001,265.07
	c0,27.449,22.252,49.7,49.7,49.7h41.415h82.833h41.42c27.447,0,49.697-22.25,49.697-49.697v-265.07c0-27.449-22.252-49.7-49.7-49.7
	h-41.415L214.584,73.767L214.584,73.767z"/>
<rect x="189.73" y="73.77" style="fill:#FDBE40;" width="132.53" height="363.9"/>
<path style="fill:#DC1C4A;" d="M214.583,57.2c0-22.874,18.543-41.417,41.417-41.417s41.417,18.543,41.417,41.417v397.6
	c0,22.874-18.543,41.417-41.417,41.417s-41.417-18.543-41.417-41.417L214.583,57.2L214.583,57.2z"/>
<path style="fill:#B31E48;" d="M256,15.783c-3.449,0-6.797,0.429-10,1.223c18.041,4.474,31.416,20.769,31.416,40.194v397.6
	c0,19.425-13.375,35.72-31.416,40.194c3.203,0.794,6.551,1.223,10,1.223c22.874,0,41.417-18.543,41.417-41.417V57.2
	C297.417,34.326,278.874,15.783,256,15.783z"/>
<g>
	<polygon style="fill:#E09F43;" points="194.584,73.767 214.584,73.767 173.164,73.766 173.153,73.767 	"/>
	<path style="fill:#E09F43;" d="M338.833,73.766h-19.99c27.444,0.006,49.69,22.255,49.69,49.7v265.07
		c0,27.444-22.245,49.691-49.688,49.696h19.991c27.447,0,49.697-22.25,49.697-49.697v-265.07
		C388.533,96.018,366.281,73.766,338.833,73.766z"/>
	<polygon style="fill:#E09F43;" points="173.159,438.233 173.168,438.234 214.583,438.233 194.583,438.233 	"/>
</g>
<path d="M251.858,396.033l8.282-0.001c13.271,0,24.067-10.796,24.067-24.066c0-13.27-10.797-24.067-24.069-24.067l-8.281,0.002
	c-5,0-9.067-4.067-9.067-9.066c0-5,4.067-9.067,9.068-9.067l8.282-0.001c13.271,0,24.067-10.796,24.067-24.066
	c0-13.27-10.797-24.066-24.067-24.066h-8.283c-5,0-9.067-4.067-9.067-9.067c0-4.999,4.067-9.066,9.068-9.066l8.282-0.001
	c13.271,0,24.067-10.796,24.067-24.066c0-13.27-10.797-24.067-24.07-24.067l-8.28,0.003c-5,0-9.067-4.067-9.067-9.067
	c0-4.999,4.067-9.066,9.068-9.066l8.282-0.001c13.271,0,24.067-10.796,24.067-24.066c0-13.271-10.797-24.067-24.07-24.067
	l-8.28,0.003c-5,0-9.067-4.067-9.067-9.067c0-4.999,4.067-9.066,9.068-9.066l8.282-0.001c13.271,0,24.067-10.796,24.067-24.066
	S273.409,82.84,260.139,82.84c-4.143,0-7.5,3.357-7.5,7.5s3.357,7.5,7.5,7.5c5,0,9.067,4.067,9.067,9.067
	c0,4.999-4.067,9.066-9.068,9.066l-8.282,0.001c-13.271,0-24.067,10.796-24.067,24.066c0,13.271,10.797,24.067,24.07,24.067
	l8.28-0.003c5,0,9.067,4.067,9.067,9.067c0,4.999-4.067,9.066-9.068,9.066l-8.282,0.001c-13.271,0-24.067,10.796-24.067,24.066
	c0,13.27,10.797,24.067,24.07,24.067l8.28-0.003c5,0,9.067,4.067,9.067,9.067c0,4.999-4.067,9.066-9.068,9.066l-8.282,0.001
	c-13.271,0-24.067,10.796-24.067,24.066s10.797,24.067,24.067,24.067h8.283c5,0,9.067,4.067,9.067,9.066
	c0,4.999-4.067,9.066-9.068,9.066l-8.282,0.001c-13.271,0-24.067,10.797-24.067,24.067s10.797,24.066,24.069,24.066l8.281-0.002
	c5,0,9.067,4.067,9.067,9.067c0,4.999-4.067,9.066-9.068,9.066l-8.282,0.001c-13.271,0-24.067,10.796-24.067,24.066
	c0,13.27,10.797,24.067,24.067,24.067c4.143,0,7.5-3.357,7.5-7.5s-3.357-7.5-7.5-7.5c-5,0-9.067-4.067-9.067-9.067
	C242.79,400.101,246.857,396.033,251.858,396.033z"/>
<path d="M338.833,66.267h-33.916V57.2c0-24.422-17.991-44.721-41.416-48.341V7.5c0-4.143-3.357-7.5-7.5-7.5s-7.5,3.357-7.5,7.5
	v1.359c-23.426,3.619-41.418,23.918-41.418,48.342v9.066h-33.919c-31.539,0-57.197,25.658-57.197,57.196v50.455
	c0,4.143,3.357,7.5,7.5,7.5c4.143,0,7.5-3.357,7.5-7.5v-50.455c0-23.268,18.93-42.196,42.197-42.196h33.919v349.467h-33.915
	c-23.27,0-42.2-18.931-42.2-42.2V203.785c0-4.143-3.357-7.5-7.5-7.5c-4.143,0-7.5,3.357-7.5,7.5v184.748
	c0,31.54,25.66,57.2,57.2,57.2h33.915v9.067c0,24.422,17.992,44.72,41.416,48.34v1.359c0,4.143,3.357,7.5,7.5,7.5
	c4.143,0,7.5-3.357,7.5-7.5v-1.358c23.426-3.62,41.418-23.918,41.418-48.341v-9.067h33.919c31.539,0,57.197-25.658,57.197-57.196
	v-265.07C396.033,91.927,370.373,66.267,338.833,66.267z M256,488.717c-18.702,0-33.917-15.215-33.917-33.916V73.786
	c0-0.007,0.001-0.013,0.001-0.019s-0.001-0.013-0.001-0.019V64.7h17.351c4.143,0,7.5-3.357,7.5-7.5s-3.357-7.5-7.5-7.5h-16.505
	c3.424-15.104,16.947-26.417,33.071-26.417c18.702,0,33.917,15.215,33.917,33.917v381.014c0,0.007-0.001,0.013-0.001,0.013
	c0,0.013,0.001,0.019,0.001,0.019v9.056h-17.352c-4.142,0-7.5,3.357-7.5,7.5s3.358,7.5,7.5,7.5h16.505
	C285.646,477.404,272.124,488.717,256,488.717z M381.033,388.537c0,23.268-18.93,42.196-42.197,42.196h-33.919V81.267h33.916
	c23.27,0,42.2,18.931,42.2,42.2L381.033,388.537L381.033,388.537z"/>
<path d="M197.234,405.101V106.898c0-4.143-3.357-7.5-7.5-7.5s-7.5,3.357-7.5,7.5V405.1c0,4.143,3.357,7.5,7.5,7.5
	C193.877,412.601,197.234,409.243,197.234,405.101z"/>
<path d="M322.266,99.398c-4.143,0-7.5,3.357-7.5,7.5V405.1c0,4.143,3.357,7.5,7.5,7.5s7.5-3.357,7.5-7.5V106.898
	C329.766,102.756,326.408,99.398,322.266,99.398z"/>
<g>
</g>
<g>
</g>
<g>
</g>
<g>
</g>
<g>
</g>
<g>
</g>
<g>
</g>
<g>
</g>
<g>
</g>
<g>
</g>
<g>
</g>
<g>
</g>
<g>
</g>
<g>
</g>
<g>
</g>
</svg>
