<svg height="512" viewBox="0 0 64 64" width="512" xmlns="http://www.w3.org/2000/svg"><g id="Filled_outline" data-name="Filled outline"><g fill="#d3843d"><path d="m61 48.212c-.115 5.088-4.694 8.943-9.775 8.788-8.269-.265-13.835-4.438-18.225-6.992a2.409 2.409 0 0 1 0-4c4.526-2.634 10.5-7.008 19-7.008a9.007 9.007 0 0 1 9 9.212z"/><path d="m19 35a8 8 0 0 1 -16 0c0-4.418 3.582-11 8-11s8 6.582 8 11z"/><circle cx="30" cy="36" r="6"/></g><path d="m49 21h12a0 0 0 0 1 0 0 6 6 0 0 1 -6 6 6 6 0 0 1 -6-6 0 0 0 0 1 0 0z" fill="#66342e" transform="matrix(-1 0 0 -1 110 48)"/><path d="m50 27h10s-.874 2.977-1 4c-.27 2.193-4 4-4 4s-3.73-1.807-4-4c-.126-1.023-1-4-1-4z" fill="#f9bb4b"/><circle cx="28" cy="55" fill="#ffd782" r="3"/><path d="m20 51h-2a3 3 0 0 1 -3-3 3 3 0 0 1 3-3h2c1.657 0 3 3 3 3s-1.343 3-3 3z" fill="#ffd782"/><path d="m42 34a3 3 0 0 1 -3-3v-5c0-1.657 3-4 3-4s3 2.343 3 4v5a3 3 0 0 1 -3 3z" fill="#f9bb4b"/><path d="m27 7.36c-.327-.273-4.163-3.731-9-2.36-3.845 1.09-10 2-10 8 0 1.6 1.486 2.585 2 3 5.739 4.631 17.343.082 19-.64a12.137 12.137 0 0 0 4 1.64c.633.173 5.922 1.554 8-1 1.978-2.431.431-7.667-3-10-3.1-2.1-7.607-1.4-11 1.36z" fill="#ad6327"/><path d="m24 22h-4c-1.65 0-3-3-3-3s1.35-3 3-3h4a3.009 3.009 0 0 1 3 3 3.009 3.009 0 0 1 -3 3z" fill="#f9bb4b"/><path d="m4.713 39.937a7.984 7.984 0 0 0 12.574 0 6.988 6.988 0 0 0 -12.574 0z" fill="#ad6327"/><path d="m34.389 52.01c4.2 2.563 9.424 5.753 16.8 5.984.111 0 .222.006.332.006a10.8 10.8 0 0 0 7.392-2.937 9.668 9.668 0 0 0 3.087-6.828 10.008 10.008 0 0 0 -10-10.235c-7.7 0-13.487 3.51-17.714 6.073-.621.376-1.217.738-1.789 1.071a3.407 3.407 0 0 0 0 5.728c.603.353 1.235.737 1.892 1.138zm-.889-5.138c.582-.339 1.187-.706 1.819-1.089 4.253-2.577 9.541-5.783 16.681-5.783a7.932 7.932 0 0 1 5.716 2.407c.012.012.021.026.033.038a25.206 25.206 0 0 0 -12.033.6l.568 1.918a23.4 23.4 0 0 1 13.073-.1 7.915 7.915 0 0 1 .571 2.137h-11.928v2h11.934a7.545 7.545 0 0 1 -.623 2.156 23.368 23.368 0 0 1 -13.027-.107l-.568 1.918a25.648 25.648 0 0 0 7.284 1.061q.517 0 1.037-.021a25.452 25.452 0 0 0 3.5-.4 8.9 8.9 0 0 1 -6.281 2.393c-6.851-.216-11.827-3.253-15.825-5.693-.669-.408-1.31-.8-1.928-1.159a1.42 1.42 0 0 1 0-2.272z"/><path d="m11 44a9.01 9.01 0 0 0 9-9c0-4.721-3.864-12-9-12s-9 7.279-9 12a9.01 9.01 0 0 0 9 9zm0-2a6.973 6.973 0 0 1 -5.066-2.184 5.965 5.965 0 0 1 10.132 0 6.973 6.973 0 0 1 -5.066 2.184zm0-17c3.8 0 7 6.143 7 10a6.943 6.943 0 0 1 -.722 3.077 7.966 7.966 0 0 0 -2.049-1.877l.741-2.961-1.94-.484-.652 2.608a7.929 7.929 0 0 0 -1.378-.293v-3.07h-2v3.07a7.929 7.929 0 0 0 -1.378.3l-.652-2.612-1.94.484.741 2.958a7.966 7.966 0 0 0 -2.049 1.874 6.943 6.943 0 0 1 -.722-3.074c0-3.857 3.2-10 7-10z"/><path d="m32.975 30.93a13 13 0 0 1 -2.268-1.637 1 1 0 0 0 -1.414 0 8.4 8.4 0 0 1 -2.185 1.368c-1.83.915-4.108 2.054-4.108 5.339a7 7 0 0 0 14 0c0-2.555-2.139-3.891-4.025-5.07zm-2.975 10.07a5.006 5.006 0 0 1 -5-5c0-1.953 1.085-2.591 3-3.55a13.753 13.753 0 0 0 1.981-1.132 21.217 21.217 0 0 0 1.93 1.308c1.923 1.199 3.089 2.025 3.089 3.374a5.006 5.006 0 0 1 -5 5z"/><path d="m30 37h2v2h-2z"/><path d="m27 35h2v2h-2z"/><path d="m56 20.08v-3.08h-2v3.08a7.006 7.006 0 0 0 -6 6.92 1 1 0 0 0 1 1h.246a31.889 31.889 0 0 1 .762 3.122c.326 2.656 4.124 4.568 4.555 4.778a1 1 0 0 0 .874 0c.431-.21 4.229-2.122 4.555-4.778a31.889 31.889 0 0 1 .762-3.122h.246a1 1 0 0 0 1-1 7.006 7.006 0 0 0 -6-6.92zm2.008 10.8c-.134 1.089-1.87 2.351-3.009 2.992-1.138-.639-2.872-1.9-3.007-2.992a26.348 26.348 0 0 0 -.67-2.88h7.356a26.348 26.348 0 0 0 -.67 2.878zm-7.908-4.88a5 5 0 0 1 9.8 0z"/><path d="m28 59a4 4 0 1 0 -4-4 4 4 0 0 0 4 4zm0-6a2 2 0 1 1 -2 2 2 2 0 0 1 2-2z"/><path d="m18 44a4 4 0 0 0 0 8h2c2.194 0 3.645-2.992 3.913-3.592a1 1 0 0 0 0-.816c-.268-.6-1.719-3.592-3.913-3.592zm3.886 4c-.5.927-1.322 2-1.886 2h-2a2 2 0 0 1 0-4h2c.52 0 1.346.985 1.886 2z"/><path d="m41.385 21.212c-.566.441-3.385 2.746-3.385 4.788v5a4 4 0 0 0 8 0v-5c0-2.042-2.819-4.347-3.385-4.788a1 1 0 0 0 -1.23 0zm2.615 4.788v5a2 2 0 0 1 -4 0v-5c0-.583.949-1.749 2-2.694 1.051.945 2 2.111 2 2.694z"/><path d="m38.561 5.172c-3.175-2.151-7.824-1.751-11.547.919a10.687 10.687 0 0 0 -9.287-2.053c-.4.113-.821.224-1.259.339-3.768.988-9.468 2.482-9.468 8.623a4.82 4.82 0 0 0 2.226 3.664l.146.114a11.237 11.237 0 0 0 6.628 2.24.986.986 0 0 0 .084.392c.273.6 1.729 3.59 3.916 3.59h4a4 4 0 0 0 4-4 3.957 3.957 0 0 0 -.542-1.974c.606-.214 1.1-.4 1.429-.535a15.254 15.254 0 0 0 3.852 1.475c1.529.411 6.7 1.533 9.036-1.334a5.87 5.87 0 0 0 1.011-4.613 10.29 10.29 0 0 0 -4.225-6.847zm-14.561 15.828h-4c-.517 0-1.342-.985-1.885-2 .507-.939 1.344-2 1.885-2h4a2 2 0 0 1 0 4zm16.226-5.632c-1.345 1.648-5.012 1.193-6.961.668a11.325 11.325 0 0 1 -3.66-1.472 1 1 0 0 0 -1.009-.118c-.407.18-1.416.582-2.763 1.02a3.941 3.941 0 0 0 -1.833-.466h-4a4.05 4.05 0 0 0 -3.027 2.041 9.854 9.854 0 0 1 -6.346-1.82l-.179-.14c-.506-.391-1.448-1.119-1.448-2.081 0-4.259 3.456-5.5 7.975-6.688.452-.12.888-.234 1.3-.35 3.736-1.055 6.86 1.129 8.094 2.172a1 1 0 0 0 1.266 0c3.139-2.556 7.17-3.094 9.806-1.309a8.351 8.351 0 0 1 3.369 5.481 3.939 3.939 0 0 1 -.584 3.062z"/><path d="m12 10h2v2h-2z"/><path d="m16 12h2v2h-2z"/><path d="m20 9h2v2h-2z"/></g></svg>