<svg height="512" viewBox="0 0 128 128" width="512" xmlns="http://www.w3.org/2000/svg"><g><g><g><path d="m108.305 100.827c-22.236 10.387-42.868-2.922-48.977-11.152 19.972 5.993 35.851 2.025 43.819-1.033a6.608 6.608 0 0 1 8.369 3.4 6.629 6.629 0 0 1 -3.211 8.785z" fill="#fc6243"/><path d="m108.73 101.73c-.09.04-.19.09-.28.13l.14-5.27-4.27-1.59.82-4.2-3.51-2.66c.4-.15.79-.29 1.16-.43a7.459 7.459 0 0 1 2.72-.51 7.625 7.625 0 0 1 3.22 14.53z" fill="#9adb07"/></g><g><circle cx="67.771" cy="57.822" fill="#fc6243" r="19.904"/><path d="m83.487 43.228a5.179 5.179 0 0 1 -6.061.92 9.932 9.932 0 0 1 -.6 6.559 8.8 8.8 0 0 1 -6.615-5.673s-2.846 3.86-6.109 4.151c0 0-2.854-3.637-2-6.607-2.943.611-7.51-1.318-7.842-1.419a23.269 23.269 0 0 1 29.219 2.069z" fill="#88b708"/></g><path d="m98.711 77.476c-20.454-2.627-19.431-19.122-16.231-27.394 5.388-13.926 18.811-15.7 20.082-22.731l2.544.326 2.543.327c-.546 7.12 11.993 12.232 13.687 27.067 1.007 8.812-2.171 25.029-22.625 22.405z" fill="#6e76e3"/><g><path d="m21.035 87.945 1.914-20.182c.555-8.72-1.825-14.718-6.727-19.8l8.748-.379a31.555 31.555 0 0 1 4.918 17.265 31.559 31.559 0 0 1 7.066-16.5l8.629 1.484c-5.506 4.417-8.626 10.067-9.183 18.785l-.654 20.262z" fill="#88b708"/><path d="m59.17 32.525a9.847 9.847 0 0 0 -6.213-9.782 9.836 9.836 0 0 0 -9.017-8.863 10.784 10.784 0 0 0 -19.951-1.269 9.837 9.837 0 0 0 -10.067 7.651 9.842 9.842 0 0 0 -4.934 16.08 10.777 10.777 0 0 0 16.065 12.929 10.743 10.743 0 0 0 13.189.838 10.777 10.777 0 0 0 17.573-10.79 9.818 9.818 0 0 0 3.355-6.794z" fill="#9adb07"/></g><path d="m83.65 119.32a3.485 3.485 0 0 1 -3.86 2.12l-24.13-4.4-3.49-.64-21.98-4-3.48-.64-1.27-.23a14.281 14.281 0 0 1 -2.8-.82 7.928 7.928 0 0 1 -4.87-8.66 41.921 41.921 0 0 1 2.34-8.48 42.825 42.825 0 0 1 4.22-7.72 7.935 7.935 0 0 1 7.97-3.28 7.294 7.294 0 0 1 1.56.45 13.355 13.355 0 0 1 1.7.83 9.179 9.179 0 0 1 .89.54l15.29 10.24 2.94 1.96 11.69 7.83 2.93 1.96 13.06 8.74a3.482 3.482 0 0 1 1.29 4.2z" fill="#fc6243"/></g><g fill="#1b1e40"><path d="m116.737 84.037a27.474 27.474 0 0 1 -4.667 4.139 9.361 9.361 0 0 0 -6.56-2.726 9.177 9.177 0 0 0 -3.34.623l-1.153.428a1.751 1.751 0 0 0 -1.117 1.386v.045a66.853 66.853 0 0 1 -40.067.068 1.749 1.749 0 0 0 -1.907 2.72c4.216 5.672 15.857 14.494 30.648 15.549.043 0 .085.005.127.005a1.75 1.75 0 0 0 .123-3.5 42.609 42.609 0 0 1 -23.978-9.874 69.331 69.331 0 0 0 37.427-2.079l.94.713-.61 3.129a1.749 1.749 0 0 0 1.107 1.975l3.1 1.153-.048 1.792a38.386 38.386 0 0 1 -9.81 2.889 1.75 1.75 0 0 0 .256 3.481 1.907 1.907 0 0 0 .26-.019 41.711 41.711 0 0 0 9.829-2.78 1.643 1.643 0 0 0 .183.159 1.747 1.747 0 0 0 1.684.143l.275-.127.034-.016a9.377 9.377 0 0 0 4.6-12.266 30.929 30.929 0 0 0 5.327-4.747 1.749 1.749 0 1 0 -2.666-2.266zm-6.437 14.175.041-1.576a1.75 1.75 0 0 0 -1.141-1.686l-2.878-1.072.535-2.743a1.749 1.749 0 0 0 -.661-1.73l-.6-.454a5.875 5.875 0 0 1 4.7 9.261z"/><path d="m56.191 61.513a1.75 1.75 0 1 0 -3.333 1.067 15.625 15.625 0 0 0 2.858 5.22 1.75 1.75 0 0 0 2.7-2.232 12.156 12.156 0 0 1 -2.225-4.055z"/><path d="m111.106 69.867a1.749 1.749 0 0 0 2.255-1.02 41.639 41.639 0 0 0 2.3-14.77 43.864 43.864 0 0 0 -.8-7.578 1.75 1.75 0 0 0 -3.433.681 40.419 40.419 0 0 1 .737 6.979 37.8 37.8 0 0 1 -2.076 13.453 1.75 1.75 0 0 0 1.017 2.255z"/><path d="m91.223 43.452a41.909 41.909 0 0 0 -3.606 11.106 44.582 44.582 0 0 0 -.666 5.838 1.75 1.75 0 0 0 1.664 1.833h.085a1.75 1.75 0 0 0 1.747-1.665 40.933 40.933 0 0 1 .612-5.372 38.511 38.511 0 0 1 3.302-10.192 1.75 1.75 0 1 0 -3.138-1.548z"/><path d="m105.451 64.354a1.667 1.667 0 0 0 .279.023 1.751 1.751 0 0 0 1.726-1.473c.494-3.075.879-6.479 1.084-9.585a1.75 1.75 0 0 0 -3.492-.231c-.114 1.739-.4 5.253-1.047 9.261a1.75 1.75 0 0 0 1.45 2.005z"/><path d="m107 46.456h.043a1.749 1.749 0 0 0 1.707-1.792c-.037-1.566-.122-3.115-.259-4.734a1.75 1.75 0 0 0 -3.488.295c.131 1.548.212 3.028.249 4.524a1.75 1.75 0 0 0 1.748 1.707z"/><path d="m95.312 69.019h.019a1.751 1.751 0 0 0 1.75-1.731 93.6 93.6 0 0 1 1.66-15.009c.373-1.943.781-3.8 1.213-5.514a1.75 1.75 0 1 0 -3.394-.855c-.449 1.781-.871 3.7-1.256 5.709a97.262 97.262 0 0 0 -1.723 15.631 1.751 1.751 0 0 0 1.731 1.769z"/><path d="m22.692 72.252a1.75 1.75 0 0 0 1.741-1.585l.259-2.742a1.75 1.75 0 0 0 -3.484-.33l-.26 2.742a1.751 1.751 0 0 0 1.577 1.908c.057.005.112.007.167.007z"/><path d="m83.329 113.662-14.535-9.728-.009-.006-31.094-20.813.455-14.384c.384-6.025 2.067-10.6 5.235-14.328.4.063.8.115 1.2.14.272.018.542.026.812.026.336 0 .669-.018 1-.045-.067.444-.143.885-.185 1.337a21.64 21.64 0 0 0 19.6 23.522q1.008.092 2.008.092a21.47 21.47 0 0 0 15.854-6.958c2.782 3.02 6.717 5.086 11.755 6.17-.6.909-1.117 1.552-1.126 1.563a1.75 1.75 0 0 0 2.722 2.2c.039-.048.6-.753 1.274-1.761.4 1.149.764 1.974.79 2.032a1.75 1.75 0 0 0 3.189-1.444c-.006-.012-.345-.77-.7-1.814.469.02.942.048 1.4.048 5.969 0 10.764-1.751 14.29-5.227 5.322-5.248 6.493-13.469 5.813-19.412-1.011-8.855-5.593-14.37-9.275-18.8-2.525-3.038-4.516-5.447-4.4-7.823 1.068-3.868 3.339-8.921 8.128-11.487a1.75 1.75 0 1 0 -1.652-3.085 19.468 19.468 0 0 0 -8.443 9.66l1.174-9.155a1.749 1.749 0 1 0 -3.47-.446l-1.179 9.192a19.437 19.437 0 0 0 -5.727-11.513 1.75 1.75 0 1 0 -2.377 2.569c3.985 3.686 4.9 9.164 4.954 13.173-.455 2.137-2.6 3.836-5.592 5.986a1.75 1.75 0 1 0 2.045 2.84c2.525-1.817 5.338-3.841 6.544-6.71l2.154.277c.431 3.079 2.646 5.744 5.15 8.759 3.561 4.285 7.6 9.142 8.491 16.96.585 5.125-.368 12.156-4.8 16.523-3.564 3.514-8.9 4.843-15.869 3.947s-11.8-3.529-14.358-7.829c-3.18-5.344-2.325-12.388-.464-17.2a25.679 25.679 0 0 1 7.335-10.28 1.75 1.75 0 0 0 -2.312-2.627 32.616 32.616 0 0 0 -4.2 4.434 1.65 1.65 0 0 0 -.242-.28 24.479 24.479 0 0 0 -11.454-6.094 36.85 36.85 0 0 1 4.3-9.057 1.75 1.75 0 0 0 -2.873-2 41.176 41.176 0 0 0 -4.93 10.5 24.9 24.9 0 0 0 -9.7 1.09 11.591 11.591 0 0 0 -5.477-14.86 11.561 11.561 0 0 0 -9.358-9.259 12.533 12.533 0 0 0 -22.254-1.414 11.559 11.559 0 0 0 -10.453 8 11.592 11.592 0 0 0 -5.48 17.82 12.515 12.515 0 0 0 10.845 16.144 20.75 20.75 0 0 1 3.185 8.78 1.749 1.749 0 0 0 1.732 1.521 1.629 1.629 0 0 0 .231-.015 1.75 1.75 0 0 0 1.507-1.963 24.445 24.445 0 0 0 -2.726-8.573 12.372 12.372 0 0 0 3.131-1.177c.091.065.186.123.278.185a29.915 29.915 0 0 1 2.944 13.237 1.751 1.751 0 0 0 1.64 1.778h.112a1.749 1.749 0 0 0 1.737-1.558 29.884 29.884 0 0 1 4-11.794 12.431 12.431 0 0 0 2.477-1.011 12.477 12.477 0 0 0 1.7 1.018c-3.1 4.1-4.753 9.02-5.152 15.309l-.4 12.735a9.623 9.623 0 0 0 -11.129 3.259l.723-7.641a1.75 1.75 0 1 0 -3.484-.331l-1.064 11.189a1.7 1.7 0 0 0 .842 1.656c-.26.492-.522.985-.756 1.472a9.8 9.8 0 0 1 -4.056-6.383 1.749 1.749 0 0 0 -3.4.82 17.692 17.692 0 0 0 1.22 3.52l-5.99-2.43a1.749 1.749 0 0 0 -1.32 3.24l5.97 2.42a17.984 17.984 0 0 0 -3.29 1.68 1.748 1.748 0 1 0 1.86 2.96 9.777 9.777 0 0 1 7.353-1.753 45.72 45.72 0 0 0 -1.691 6.78 9.639 9.639 0 0 0 5.936 10.578 16.034 16.034 0 0 0 3.151.916l2.965.541h.009l25.46 4.644h.007l25.907 4.726a5.236 5.236 0 0 0 3.852-9.5zm-17.202-37.762a18.14 18.14 0 0 1 -16.435-19.717 19.091 19.091 0 0 1 .434-2.554 12.521 12.521 0 0 0 7.625-9.567 15.316 15.316 0 0 0 2.479.368 12.541 12.541 0 0 0 2.5 5.84 1.763 1.763 0 0 0 1.54.66 9.813 9.813 0 0 0 5.55-2.87 10.183 10.183 0 0 0 6.7 4.37 1.628 1.628 0 0 0 .31.03 1.758 1.758 0 0 0 1.55-.93 11.447 11.447 0 0 0 1.09-5.05 6.848 6.848 0 0 0 2.257-.24c.125.15.244.3.363.456a29.349 29.349 0 0 0 -1.241 2.754c-2.154 5.565-3.1 13.786.693 20.2a18.035 18.035 0 0 1 -15.415 6.25zm3.433-37.1a21.179 21.179 0 0 1 10.9 4.16 3.534 3.534 0 0 1 -2.17-.34 1.756 1.756 0 0 0 -2.56 1.95 8.515 8.515 0 0 1 0 4.01 7.191 7.191 0 0 1 -3.85-4.07 1.75 1.75 0 0 0 -1.38-1.2 1.428 1.428 0 0 0 -.29-.03 1.767 1.767 0 0 0 -1.41.71 10.591 10.591 0 0 1 -3.91 3.23c-.68-1.13-1.47-2.88-1.1-4.15a1.753 1.753 0 0 0 -.4-1.68 1.731 1.731 0 0 0 -1.64-.52 8.393 8.393 0 0 1 -3.13-.19 21.445 21.445 0 0 1 10.94-1.88zm-39.091 16.953c-.22-.8-.464-1.545-.715-2.263a12.513 12.513 0 0 0 1.639.215h.014c-.318.645-.635 1.318-.938 2.048zm7.772-7.394a1.743 1.743 0 0 0 -.983.3 9.03 9.03 0 0 1 -3.121 1.349l-.068.015a8.922 8.922 0 0 1 -6.5-1.076c-.017-.012-.036-.02-.054-.031a9.276 9.276 0 0 1 -1.3-.959 1.749 1.749 0 0 0 -2.143-.136 9.028 9.028 0 0 1 -13.46-10.828 1.749 1.749 0 0 0 -.312-1.813 8.093 8.093 0 0 1 4.057-13.222 1.749 1.749 0 0 0 1.276-1.311 8.036 8.036 0 0 1 8.267-6.288 1.717 1.717 0 0 0 1.662-.988 9.033 9.033 0 0 1 16.713 1.063 1.752 1.752 0 0 0 1.523 1.19 8.07 8.07 0 0 1 7.413 7.286 1.752 1.752 0 0 0 1.1 1.461 8.093 8.093 0 0 1 2.354 13.629 1.752 1.752 0 0 0 -.544 1.759 9.027 9.027 0 0 1 -6.011 10.884l-.016.005a9 9 0 0 1 -8.694-1.848 1.747 1.747 0 0 0 -1.159-.441zm43.784 70.307a1.739 1.739 0 0 1 -1.92 1.055l-23.779-4.337.741-1.828a1.75 1.75 0 1 0 -3.243-1.315l-1.014 2.5-21.952-4 1.591-3.925a1.75 1.75 0 0 0 -3.243-1.314l-1.864 4.6-1.585-.289a12.557 12.557 0 0 1 -2.465-.717 6.237 6.237 0 0 1 -3.8-6.756 36.536 36.536 0 0 1 6.28-15.491 6.22 6.22 0 0 1 5.113-2.655 6.358 6.358 0 0 1 .74.05l-3.518 8.676a1.75 1.75 0 1 0 3.244 1.314l3.54-8.733c.194.115.393.221.579.346l15.563 10.41-1.336 3.3a1.75 1.75 0 1 0 3.243 1.315l1.06-2.627 11.66 7.8-1.76 4.347a1.75 1.75 0 1 0 3.244 1.315l1.487-3.67 12.749 8.533a1.744 1.744 0 0 1 .645 2.096z"/><path d="m43.676 96.438a1.748 1.748 0 0 0 -2.276.962l-1.472 3.63a1.75 1.75 0 1 0 3.243 1.315l1.472-3.63a1.749 1.749 0 0 0 -.967-2.277z"/></g></g></svg>